<?xml version="1.0" encoding="utf-8"?>
<!-- Generator: Adobe Illustrator 16.0.0, SVG Export Plug-In . SVG Version: 6.00 Build 0)  -->
<!DOCTYPE svg PUBLIC "-//W3C//DTD SVG 1.1//EN" "http://www.w3.org/Graphics/SVG/1.1/DTD/svg11.dtd">
<svg version="1.1" id="Layer_1" xmlns="http://www.w3.org/2000/svg" xmlns:xlink="http://www.w3.org/1999/xlink" x="0px" y="0px"
	 width="720px" height="720px" viewBox="0 0 720 720" style="enable-background:new 0 0 720 720;" xml:space="preserve">
<style type="text/css">
<![CDATA[
	.st0{fill:none;stroke:#000000;stroke-miterlimit:10;stroke-dasharray:12,12;}
	.st1{fill:#B3B3B3;fill-opacity:0.5;}
	.st2{fill:#808080;fill-opacity:0.5;}
	.st3{font-family:'MyriadPro-Regular';}
	.st4{fill:none;stroke:#000000;stroke-width:3;stroke-miterlimit:10;}
	.st5{fill:none;stroke:#000000;stroke-miterlimit:10;}
	.st6{fill:none;stroke:#000000;stroke-width:2;stroke-miterlimit:10;}
	.st7{fill:none;stroke:#000000;stroke-width:3;stroke-miterlimit:10;stroke-dasharray:12,6;}
	.st8{font-size:12;}
	.st9{font-size:20;}
	.st10{font-size:27;}
]]>
</style>
<path class="st1" d="M61,654.024V119h1.478c0,143.782,164.92,281.967,341.208,374.982l-0.337-0.305
	C268.42,588.356,124.276,655.125,62.478,655.125"/>
<path class="st2" d="M61,652.024V117h1.478c0,38.923,18.494,96.716,48.984,142c39.411,58.534,93.133,100.636,93.134,100.636V466v94
	v48.324c0,0-37.747,15.337-75.45,28.064c-26.736,9.024-53.45,16.736-66.668,16.736"/>
<g>
	<g>
		<g>
			<line class="st6" x1="61" y1="76" x2="61" y2="655"/>
			<g>
				<path d="M61.5,64.416c-2.107,5.68-5.703,12.727-9.512,17.095l9.512-3.44l9.51,3.44C67.201,77.143,63.605,70.096,61.5,64.416z"/>
			</g>
		</g>
	</g>
	<g>
		<g>
			<line class="st6" x1="639" y1="655" x2="61" y2="655"/>
			<g>
				<path d="M651.5,654.584c-5.68-2.107-12.727-5.703-17.095-9.512l3.44,9.512l-3.44,9.51
					C638.773,660.285,645.82,656.689,651.5,654.584z"/>
			</g>
		</g>
	</g>
</g>
<path class="st6" d="M61.5,105c0,220.998,322.985,405.447,578.521,479.929"/>
<path class="st6" d="M629,284C483.395,474.279,160.281,656,58,656"/>
<text transform="matrix(1 0 0 1 667.4189 662.5)" class="st3 st9">Q</text>
<g>
	<text transform="matrix(1 0 0 1 82 111.5)" class="st3 st9">Jobs</text>
	<text transform="matrix(1 0 0 1 82 126)" class="st3 st8">(Labor demanded)</text>
</g>
<g>
	<text transform="matrix(1 0 0 1 550 259)" class="st3 st9">Workers</text>
	<text transform="matrix(1 0 0 1 550 273)" class="st3 st8">(Labor supplied)</text>
</g>
<text transform="matrix(1 0 0 1 575 684)" class="st3 st8">(Quantity of laborers)</text>
<g>
	<text transform="matrix(1 0 0 1 58 37)" class="st3 st9">P</text>
	<text transform="matrix(1 0 0 1 50 52)" class="st3 st8">(Wage rate)</text>
</g>
<g>
	<g>
		<line class="st5" x1="402.5" y1="655" x2="402.5" y2="649"/>
		<line class="st0" x1="402.5" y1="637" x2="402.5" y2="502"/>
		<polyline class="st5" points="402.5,496 402.5,490.5 397,490.5 		"/>
		<line class="st0" x1="385" y1="490.5" x2="73" y2="490.5"/>
		<line class="st5" x1="67" y1="490.5" x2="61" y2="490.5"/>
	</g>
</g>
<text transform="matrix(1 0 0 1 395 684.25)" class="st3 st9">E</text>
<text transform="matrix(0.583 0 0 0.583 404.8398 690.9102)" class="st3 st9">Q1</text>
<text transform="matrix(1 0 0 1 196.75 684.25)" class="st3 st9">E</text>
<text transform="matrix(0.583 0 0 0.583 206.5898 690.9102)" class="st3 st9">Q2</text>
<text transform="matrix(1 0 0 1 27.75 497.25)" class="st3 st9">E</text>
<text transform="matrix(0.583 0 0 0.583 37.5898 503.9102)" class="st3 st9">P1</text>
<text transform="matrix(1 0 0 1 27.75 360.5)" class="st3 st9">E</text>
<text transform="matrix(0.583 0 0 0.583 37.5898 367.1602)" class="st3 st9">P2</text>
<g>
	<g>
		<line class="st4" x1="651" y1="360.5" x2="645" y2="360.5"/>
		<line class="st7" x1="639" y1="360.5" x2="70" y2="360.5"/>
		<line class="st4" x1="67" y1="360.5" x2="61" y2="360.5"/>
	</g>
</g>
<g>
	<text transform="matrix(0.583 0 0 0.583 583 373.6602)" class="st3 st9">Minimum Wage</text>
	<text transform="matrix(0.583 0 0 0.583 583 390.6602)" class="st3 st9">(Price floor)</text>
</g>
<g>
	<g>
		<line class="st5" x1="61" y1="359.5" x2="67" y2="359.5"/>
		<line class="st0" x1="79" y1="359.5" x2="193" y2="359.5"/>
		<polyline class="st5" points="199,359.5 204.5,359.5 204.5,366 		"/>
		<line class="st0" x1="204.5" y1="378" x2="204.5" y2="643"/>
		<line class="st5" x1="204.5" y1="649" x2="204.5" y2="655"/>
	</g>
</g>
<g>
	<g>
		<path class="st5" d="M384.414,314.431c0,7.548-3.537,13.657-7.908,13.657c-95.818,0-173.354,6.908-173.354,15.445"/>
	</g>
	<g>
		<path class="st5" d="M383.422,314.431c0,7.548,3.537,13.657,7.908,13.657c95.817,0,173.354,6.908,173.354,15.445"/>
	</g>
</g>
<text transform="matrix(0.583 0 0 0.583 332.1934 302.2412)" class="st3 st10">Unemployment</text>
</svg>
